<?xml version="1.0" standalone="no"?>
<!DOCTYPE svg PUBLIC "-//W3C//DTD SVG 20010904//EN"
 "http://www.w3.org/TR/2001/REC-SVG-20010904/DTD/svg10.dtd">
<svg version="1.0" xmlns="http://www.w3.org/2000/svg"
 width="16.000000pt" height="16.000000pt" viewBox="0 0 16.000000 16.000000"
 preserveAspectRatio="xMidYMid meet">
<metadata>
Created by potrace 1.11, written by Peter Selinger 2001-2013
</metadata>
<g transform="translate(0.000000,16.000000) scale(0.006154,-0.006154)"
fill="#000000" stroke="none">
<path d="M835 2209 c-518 -13 -606 -29 -695 -126 -93 -100 -115 -204 -130
-598 -14 -388 5 -686 54 -827 55 -156 140 -214 351 -238 179 -20 907 -31 1302
-20 580 16 632 24 727 111 62 56 97 127 120 239 25 127 39 415 33 670 -12 447
-43 580 -157 683 -91 82 -157 92 -731 107 -406 10 -430 10 -874 -1z m-34 -479
c117 -22 275 -120 426 -263 l73 -70 108 104 c121 118 192 169 287 204 122 46
228 43 342 -11 190 -90 275 -349 189 -578 -68 -179 -188 -269 -361 -268 -167
1 -320 77 -473 236 l-82 85 -102 -102 c-105 -104 -169 -149 -280 -196 -53 -22
-78 -26 -158 -26 -86 0 -101 3 -163 32 -176 83 -288 296 -257 489 14 89 80
213 142 269 101 91 189 118 309 95z"/>
<path d="M1753 1561 c-29 -10 -71 -31 -94 -47 -60 -41 -239 -213 -239 -230 0
-18 133 -147 206 -200 90 -64 148 -87 219 -88 150 0 258 123 259 294 0 64 -4
85 -31 141 -35 75 -77 113 -149 135 -62 18 -108 17 -171 -5z"/>
<path d="M655 1552 c-50 -24 -111 -90 -138 -150 -63 -145 23 -346 171 -396
133 -46 252 4 424 177 48 49 88 94 87 100 0 7 -26 34 -57 60 -31 26 -87 74
-124 105 -92 80 -165 114 -253 119 -54 3 -79 -1 -110 -15z"/>
</g>
</svg>
